<?xml version="1.0" encoding="utf-8"?>
<!-- Generator: Adobe Illustrator 25.2.3, SVG Export Plug-In . SVG Version: 6.00 Build 0)  -->
<svg version="1.1" id="Layer_1" xmlns="http://www.w3.org/2000/svg" xmlns:xlink="http://www.w3.org/1999/xlink" x="0px" y="0px"
	 viewBox="0 0 140 114" style="enable-background:new 0 0 140 114;" xml:space="preserve">
<style type="text/css">
	.st0{display:none;}
	.st1{display:inline;fill:#1EAF78;}
	.st2{display:inline;}
	.st3{fill:#33AE7A;}
	.st4{fill:#231F20;}
</style>
<g class="st0">
	
		<rect x="30.8" y="37.3" transform="matrix(0.7071 -0.7071 0.7071 0.7071 -21.5701 42.8784)" class="st1" width="20.3" height="20.3"/>
	<path class="st2" d="M65.3,12.3V7.9h2.1c1.5,0,2.4,0.6,2.4,2.2s-1,2.2-2.4,2.2H65.3z M67.6,1.3H57.5v24.5h7.8v-6.7h2.3
		c7.1,0,10.2-3.3,10.2-8.9S74.7,1.3,67.6,1.3"/>
	<polygon class="st2" points="125,1.3 117.6,1.3 117.6,12.8 110.7,1.3 103.2,1.3 103.2,25.8 110.6,25.8 110.6,14.1 117.8,25.8 
		125,25.8 	"/>
	<polygon class="st2" points="17.4,35.3 12.6,42.5 7.9,35.3 0.8,35.3 0.8,59.9 8.4,59.9 8.4,48 12.1,53.4 13,53.4 16.8,48 
		16.8,59.9 24.4,59.9 24.4,35.3 	"/>
	<polygon class="st2" points="79.3,35.3 71.9,35.3 71.9,46.8 64.9,35.3 57.5,35.3 57.5,59.9 64.9,59.9 64.9,48.1 72,59.9 79.3,59.9 
			"/>
	<path class="st2" d="M103.7,35.3h-8.3V49c0,2.9-0.3,3.6-1.6,3.6c-1.1,0-1.7-0.8-1.7-3.6V35.3h-8.3v14c0,7.7,3.2,11,10,11
		c6.3,0,10-3.3,10-11L103.7,35.3L103.7,35.3z"/>
	<polygon class="st2" points="17.4,69.4 12.6,76.5 7.9,69.4 0.8,69.4 0.8,93.9 8.4,93.9 8.4,82 12.1,87.5 13,87.5 16.8,82 
		16.8,93.9 24.4,93.9 24.4,69.4 	"/>
	<polygon class="st2" points="64.5,69.4 64.5,80.9 57.6,69.4 50.1,69.4 50.1,93.9 57.5,93.9 57.5,82.2 64.7,93.9 71.9,93.9 
		71.9,69.4 	"/>
	<polygon class="st2" points="74.3,69.4 74.3,76.9 79.9,76.9 79.9,93.9 87.8,93.9 87.8,76.9 93.3,76.9 93.3,69.4 	"/>
	<polygon class="st2" points="131.9,69.4 131.9,80.9 124.9,69.4 117.5,69.4 117.5,93.9 124.9,93.9 124.9,82.2 132,93.9 139.2,93.9 
		139.2,69.4 	"/>
	<path class="st1" d="M41,0.1L41,0.1c-7.3,0-13.2,5.9-13.2,13.2c0,3.5,1.3,6.2,3.6,9.1c1,1.2,5.9,6.4,9.6,10.7
		c3.7-4.3,8.6-9.5,9.6-10.7c2.3-2.9,3.6-5.6,3.6-9.1C54.2,6,48.3,0.1,41,0.1z M41,17.9c-2.7,0-4.9-2.2-4.9-4.9s2.2-4.9,4.9-4.9
		s4.9,2.2,4.9,4.9S43.7,17.9,41,17.9z"/>
	<g class="st2">
		<polygon points="89.3,18.7 89.3,18.5 89.3,16.4 89.3,16.3 99.1,16.3 99.1,10.5 89.3,10.5 89.3,10.3 89.3,8.2 89.3,8.1 99.1,8.1 
			99.1,1.3 81.5,1.3 81.5,25.8 99.1,25.8 99.1,18.7 		"/>
	</g>
	<g class="st2">
		<polygon points="103.6,86.8 103.6,86.6 103.6,84.5 103.6,84.4 113.4,84.4 113.4,78.6 103.6,78.6 103.6,78.5 103.6,76.3 
			103.6,76.2 113.4,76.2 113.4,69.4 95.8,69.4 95.8,93.9 113.4,93.9 113.4,86.8 		"/>
	</g>
	<g class="st2">
		<polygon points="36.2,86.8 36.2,86.6 36.2,84.5 36.2,84.4 46,84.4 46,78.6 36.2,78.6 36.2,78.5 36.2,76.3 36.2,76.2 46,76.2 
			46,69.4 28.4,69.4 28.4,93.9 46,93.9 46,86.8 		"/>
	</g>
</g>
<rect x="30.9" y="37.2" transform="matrix(0.7071 -0.7071 0.7071 0.7071 -21.4903 42.868)" class="st3" width="20.3" height="20.3"/>
<path d="M65.3,12.3V7.9h2.1c1.5,0,2.4,0.6,2.4,2.2s-1,2.2-2.4,2.2H65.3z M67.6,1.3H57.5v24.5h7.8v-6.7h2.3c7.1,0,10.2-3.3,10.2-8.9
	C77.8,4.6,74.7,1.3,67.6,1.3"/>
<polygon points="124.9,1.3 117.5,1.3 117.5,12.7 110.6,1.3 103.2,1.3 103.2,25.8 110.5,25.8 110.5,14.1 117.7,25.8 124.9,25.8 "/>
<polygon points="17.4,35.3 12.7,42.4 7.9,35.3 0.8,35.3 0.8,59.8 8.5,59.8 8.5,47.9 12.1,53.4 13.1,53.4 16.8,47.9 16.8,59.8 
	24.5,59.8 24.5,35.3 "/>
<polygon points="79.2,35.3 71.9,35.3 71.9,46.8 64.9,35.3 57.5,35.3 57.5,59.8 64.8,59.8 64.8,48.1 72,59.8 79.2,59.8 "/>
<path d="M103.6,35.3h-8.3V49c0,2.9-0.3,3.6-1.6,3.6c-1.1,0-1.7-0.8-1.7-3.6V35.3h-8.3v14c0,7.7,3.2,11,10,11c6.3,0,10-3.3,10-11
	L103.6,35.3z"/>
<polygon points="17.4,69.3 12.7,76.4 7.9,69.3 0.8,69.3 0.8,93.8 8.5,93.8 8.5,81.9 12.1,87.4 13.1,87.4 16.8,81.9 16.8,93.8 
	24.5,93.8 24.5,69.3 "/>
<polygon points="64.5,69.3 64.5,80.8 57.6,69.3 50.1,69.3 50.1,93.8 57.5,93.8 57.5,82.1 64.6,93.8 71.9,93.8 71.9,69.3 "/>
<polygon points="74.2,69.3 74.2,76.8 79.8,76.8 79.8,93.8 87.7,93.8 87.7,76.8 93.3,76.8 93.3,69.3 "/>
<polygon points="131.8,69.3 131.8,80.8 124.8,69.3 117.4,69.3 117.4,93.8 124.8,93.8 124.8,82.1 131.9,93.8 139.1,93.8 139.1,69.3 
	"/>
<path class="st3" d="M41,0.1L41,0.1c-7.3,0-13.2,5.9-13.2,13.2c0,3.5,1.3,6.2,3.6,9.1c1,1.2,5.9,6.4,9.6,10.7
	c3.7-4.3,8.6-9.5,9.6-10.7c2.3-2.9,3.6-5.6,3.6-9.1C54.2,6,48.3,0.1,41,0.1z M41,17.9c-2.7,0-4.9-2.2-4.9-4.9c0-2.7,2.2-4.9,4.9-4.9
	c2.7,0,4.9,2.2,4.9,4.9l0,0C45.9,15.7,43.7,17.9,41,17.9L41,17.9z"/>
<polygon points="89.3,18.7 89.3,18.5 89.3,16.4 89.3,16.2 99.1,16.2 99.1,10.5 89.3,10.5 89.3,10.3 89.3,8.2 89.3,8.1 99.1,8.1 
	99.1,1.3 81.5,1.3 81.5,25.8 99.1,25.8 99.1,18.7 "/>
<polygon points="103.5,86.7 103.5,86.5 103.5,84.4 103.5,84.3 113.3,84.3 113.3,78.5 103.5,78.5 103.5,78.4 103.5,76.2 103.5,76.1 
	113.3,76.1 113.3,69.3 95.7,69.3 95.7,93.8 113.3,93.8 113.3,86.7 "/>
<polygon points="36.3,86.7 36.3,86.5 36.3,84.4 36.3,84.3 46,84.3 46,78.5 36.3,78.5 36.3,78.4 36.3,76.2 36.3,76.1 46,76.1 
	46,69.3 28.4,69.3 28.4,93.8 46,93.8 46,86.7 "/>
<path class="st4" d="M62.9,113.6l-0.1-0.9c-0.5,0.7-1.3,1.1-2.2,1c-1.8,0-3.1-1.5-3.1-3.5c-0.1-1.8,1.2-3.4,3-3.5c0,0,0.1,0,0.1,0
	c0.8,0,1.5,0.3,2,0.9v-3.7h1.7v9.7H62.9z M59.2,110.2c-0.1,0.9,0.6,1.8,1.5,1.9c0.9,0.1,1.8-0.6,1.9-1.5c0-0.1,0-0.2,0-0.3v-0.1
	c0.1-1-0.7-1.8-1.7-1.8c0,0,0,0-0.1,0c-1,0-1.7,0.8-1.7,1.8C59.2,110.1,59.2,110.2,59.2,110.2L59.2,110.2z"/>
<path class="st4" d="M72.7,110.2c0,2-1.5,3.5-3.5,3.6c-2,0-3.5-1.5-3.6-3.5s1.5-3.5,3.5-3.6c0,0,0,0,0,0c1.9-0.1,3.5,1.4,3.5,3.3
	C72.7,110,72.7,110.1,72.7,110.2z M67.4,110.2c0.1,1,1,1.7,1.9,1.6c1-0.1,1.7-1,1.6-1.9c-0.1-0.9-0.8-1.6-1.7-1.6
	c-1,0-1.8,0.8-1.8,1.8C67.4,110.1,67.4,110.2,67.4,110.2L67.4,110.2z"/>
<path class="st4" d="M80.7,110.2c0,1.9-1.6,3.5-3.5,3.6c-1.9,0-3.5-1.6-3.6-3.5c0-1.9,1.6-3.5,3.5-3.6c0,0,0,0,0,0
	c1.9-0.1,3.5,1.4,3.5,3.3C80.7,110,80.7,110.1,80.7,110.2z M75.5,110.2c0.1,1,1,1.7,1.9,1.6c1-0.1,1.7-1,1.6-1.9
	c-0.1-0.9-0.8-1.6-1.7-1.6c-1,0-1.8,0.8-1.8,1.8C75.4,110.1,75.4,110.1,75.5,110.2L75.5,110.2z"/>
<path class="st4" d="M84.4,108.9c-0.4,0.3-0.6,0.8-0.5,1.2v3.4h-1.7v-6.7h1.5l0.2,1.1c0.3-0.8,1.1-1.2,2-1.1v1.7
	C85.2,108.5,84.8,108.6,84.4,108.9z"/>
<path class="st4" d="M95.4,113.6v-4h-4v4h-1.8v-9.3h1.8v3.6h4v-3.6h1.8v9.3H95.4z"/>
<path class="st4" d="M105,110.7h-4.7c0,0.8,0.7,1.5,1.5,1.5c0,0,0.1,0,0.1,0c0.6,0.1,1.1-0.2,1.4-0.8h1.7c-0.3,1.4-1.6,2.4-3.1,2.3
	c-1.8,0.1-3.3-1.3-3.4-3.1c0-0.1,0-0.3,0-0.4c-0.1-1.8,1.2-3.4,3-3.5c0.1,0,0.2,0,0.3,0c1.8,0,3.1,1.1,3.1,3.5L105,110.7z
	 M103.3,109.5c0-0.8-0.5-1.4-1.3-1.4c0,0-0.1,0-0.1,0c-0.8,0-1.5,0.6-1.5,1.4H103.3z"/>
<path class="st4" d="M108.6,108.9c-0.4,0.3-0.6,0.8-0.5,1.2v3.4h-1.7v-6.7h1.5l0.2,1.1c0.3-0.8,1.1-1.2,2-1.1v1.7
	C109.5,108.5,109,108.6,108.6,108.9z"/>
<path class="st4" d="M113.1,104.9c-0.1,0.6-0.6,1-1.1,0.9c-0.5,0-0.9-0.4-0.9-0.9c0.1-0.6,0.6-1,1.1-0.9
	C112.7,104,113.1,104.4,113.1,104.9z M111.2,113.6v-6.7h1.7v6.7H111.2z"/>
<path class="st4" d="M118.4,106.8v1.6h-1.5v2.7c0,0.7,0.2,1,0.9,1c0.2,0,0.5,0,0.7-0.1v1.5c-0.3,0.1-0.7,0.2-1.1,0.1
	c-1.5,0-2.2-0.6-2.2-2.1v-3.1H114v-1.6h1.1v-1.7h1.7v1.7L118.4,106.8z"/>
<path class="st4" d="M124.9,109.1v4.4h-1.5l-0.1-0.8c-0.4,0.6-1.2,1-1.9,1c-1,0.1-1.9-0.7-2-1.7c0-0.1,0-0.2,0-0.2
	c0-1.3,0.9-1.8,2.1-2l1.7-0.3v-0.3c0-0.7-0.3-1-0.9-1c-0.5-0.1-1,0.3-1,0.8c0,0,0,0,0,0.1h-1.7c0.1-1.4,1.3-2.4,2.7-2.4c0,0,0,0,0,0
	C123.8,106.7,124.9,107.5,124.9,109.1z M121.1,111.7c0,0.4,0.3,0.7,0.8,0.7c0.4,0,0.9-0.2,1.1-0.6c0.2-0.3,0.2-0.6,0.2-0.9v-0.2
	l-1.3,0.3C121.4,111,121.1,111.2,121.1,111.7L121.1,111.7z"/>
</svg>
