<?xml version="1.0" encoding="utf-8"?>
<!-- Generator: Adobe Illustrator 19.1.0, SVG Export Plug-In . SVG Version: 6.00 Build 0)  -->
<svg version="1.1" id="Laag_1" xmlns="http://www.w3.org/2000/svg" xmlns:xlink="http://www.w3.org/1999/xlink" x="0px" y="0px"
	 viewBox="0 0 195.7 88.7" style="enable-background:new 0 0 195.7 88.7;" xml:space="preserve">
<style type="text/css">
	.st0{fill:#C13A32;}
</style>
<g>
	<g>
		<path class="st0" d="M38.4,85.4h-1.1c-0.1-0.3-0.1-0.5-0.1-0.8c-0.4,0.6-0.9,0.9-1.7,0.9c-1.8,0-2.7-1.4-2.7-3.4
			c0-2,0.8-3.4,2.7-3.4c0.8,0,1.4,0.5,1.7,1v-3.6h1.2V85.4z M35.6,79.8c-1.2,0-1.5,0.9-1.5,2.3c0,1.4,0.4,2.3,1.5,2.3s1.5-1,1.5-2.3
			C37.2,80.7,36.8,79.8,35.6,79.8z"/>
		<path class="st0" d="M42.1,82.8c-0.4,0.1-0.6,0.3-0.6,0.6c0,0.3,0.4,1,1.4,1c0.8,0,1.7-0.2,2.4-0.6v1c-0.6,0.4-1.4,0.6-2.4,0.6
			c-1.9,0-2.9-1.4-2.9-3.4c0-2,1.3-3.4,3-3.4c1.6,0,2.4,0.8,2.4,1.8c0,1.1-0.7,1.6-2,1.9L42.1,82.8z M41.3,82.2
			c0.1-0.1,0.4-0.3,0.7-0.3l1.1-0.3c0.7-0.2,1.1-0.5,1.1-1c0-0.6-0.4-0.9-1.1-0.9c-1.1,0-1.8,0.9-1.8,2.3V82.2z"/>
		<path class="st0" d="M55.3,84.8c0,2-1.3,3.2-3.1,3.2c-1,0-1.7-0.3-2-0.6v-1.2c0.6,0.4,1.3,0.7,2,0.7c1.3,0,1.8-1,1.8-2v-0.6
			c-0.4,0.5-0.9,0.9-1.7,0.9c-1.8,0-2.7-1.4-2.7-3.2c0-1.9,0.9-3.2,2.7-3.2c0.8,0,1.3,0.4,1.7,0.9c0-0.3,0-0.5,0.1-0.8h1.1V84.8z
			 M52.5,79.8c-1.2,0-1.5,0.9-1.5,2.2c0,1.2,0.4,2.2,1.5,2.2c1.2,0,1.5-0.9,1.5-2.2C54,80.7,53.7,79.8,52.5,79.8z"/>
		<path class="st0" d="M59,82.8c-0.4,0.1-0.6,0.3-0.6,0.6c0,0.3,0.4,1,1.4,1c0.8,0,1.7-0.2,2.4-0.6v1c-0.6,0.4-1.4,0.6-2.4,0.6
			c-1.9,0-2.9-1.4-2.9-3.4c0-2,1.3-3.4,3-3.4c1.6,0,2.4,0.8,2.4,1.8c0,1.1-0.7,1.6-2,1.9L59,82.8z M58.1,82.2
			c0.1-0.1,0.4-0.3,0.7-0.3l1.1-0.3c0.7-0.2,1.1-0.5,1.1-1c0-0.6-0.4-0.9-1.1-0.9c-1.1,0-1.8,0.9-1.8,2.3V82.2z"/>
		<path class="st0" d="M69.1,85.4h-1.1C68,85.1,68,84.9,68,84.6c-0.4,0.6-0.9,0.9-1.7,0.9c-1.8,0-2.7-1.4-2.7-3.4
			c0-2,0.8-3.4,2.7-3.4c0.8,0,1.4,0.5,1.7,1v-3.6h1.2V85.4z M66.4,79.8c-1.2,0-1.5,0.9-1.5,2.3c0,1.4,0.4,2.3,1.5,2.3
			c1.2,0,1.5-1,1.5-2.3C67.9,80.7,67.5,79.8,66.4,79.8z"/>
		<path class="st0" d="M71.2,78.9h1.1c0.1,0.3,0.1,0.5,0.1,0.8c0.4-0.6,1-1,1.7-1c0.2,0,0.4,0,0.5,0.1V80c-0.2-0.1-0.4-0.1-0.6-0.1
			c-1.1,0-1.5,0.6-1.5,1.6v3.8h-1.2V78.9z"/>
		<path class="st0" d="M77.3,82.8c-0.4,0.1-0.6,0.3-0.6,0.6c0,0.3,0.4,1,1.4,1c0.8,0,1.7-0.2,2.4-0.6v1c-0.6,0.4-1.4,0.6-2.4,0.6
			c-1.9,0-2.9-1.4-2.9-3.4c0-2,1.3-3.4,3-3.4c1.6,0,2.4,0.8,2.4,1.8c0,1.1-0.7,1.6-2,1.9L77.3,82.8z M76.4,82.2
			c0.1-0.1,0.4-0.3,0.7-0.3l1.1-0.3c0.7-0.2,1.1-0.5,1.1-1c0-0.6-0.4-0.9-1.1-0.9c-1.1,0-1.8,0.9-1.8,2.3V82.2z"/>
		<path class="st0" d="M83.9,85.4c-0.7-1.5-1.8-4.2-2.3-6.5h1.3c0.3,1.8,1.2,4.2,1.6,5.2c0.4-1,1.3-3.4,1.6-5.2h1.3
			c-0.5,2.3-1.6,4.9-2.3,6.5H83.9z"/>
		<path class="st0" d="M90.2,82.8c-0.4,0.1-0.6,0.3-0.6,0.6c0,0.3,0.4,1,1.4,1c0.8,0,1.7-0.2,2.4-0.6v1c-0.6,0.4-1.4,0.6-2.4,0.6
			c-1.9,0-2.9-1.4-2.9-3.4c0-2,1.3-3.4,3-3.4c1.6,0,2.4,0.8,2.4,1.8c0,1.1-0.7,1.6-2,1.9L90.2,82.8z M89.3,82.2
			c0.1-0.1,0.4-0.3,0.7-0.3l1.1-0.3c0.7-0.2,1.1-0.5,1.1-1c0-0.6-0.4-0.9-1.1-0.9c-1.1,0-1.8,0.9-1.8,2.3V82.2z"/>
		<path class="st0" d="M100.2,79.9c0.2,0.4,0.2,0.9,0.2,1.7v3.8h-1.2V82c0-1,0-1.2-0.1-1.4c-0.1-0.4-0.5-0.7-1.1-0.7
			c-1,0-1.7,0.6-1.7,2.2v3.3h-1.2v-6.5h1.1c0.1,0.3,0.1,0.7,0.1,1c0.4-0.7,1-1.2,2.1-1.2C99,78.7,99.8,79,100.2,79.9z"/>
		<path class="st0" d="M111,82.1c0,2-0.8,3.4-2.7,3.4c-0.8,0-1.4-0.4-1.7-0.9v3.3h-1.2v-9h1.1c0.1,0.3,0.1,0.5,0.1,0.8
			c0.4-0.6,0.9-0.9,1.7-0.9C110.1,78.7,111,80.1,111,82.1z M106.6,82.1c0,1.4,0.4,2.3,1.5,2.3c1.2,0,1.5-0.9,1.5-2.3
			c0-1.4-0.4-2.3-1.5-2.3C107,79.8,106.6,80.7,106.6,82.1z"/>
		<path class="st0" d="M112.6,78.9h1.1c0.1,0.3,0.1,0.5,0.1,0.8c0.4-0.6,1-1,1.7-1c0.2,0,0.4,0,0.5,0.1V80c-0.2-0.1-0.4-0.1-0.6-0.1
			c-1.1,0-1.5,0.6-1.5,1.6v3.8h-1.2V78.9z"/>
		<path class="st0" d="M119.5,85.5c-1.8,0-2.9-1.4-2.9-3.4c0-2,1.1-3.4,2.9-3.4c1.8,0,2.9,1.4,2.9,3.4
			C122.4,84.1,121.3,85.5,119.5,85.5z M119.5,79.8c-1.2,0-1.6,0.9-1.6,2.3c0,1.4,0.5,2.3,1.6,2.3s1.6-1,1.6-2.3
			C121.1,80.7,120.7,79.8,119.5,79.8z"/>
		<path class="st0" d="M125.4,85.4c-0.7-1.5-1.8-4.2-2.3-6.5h1.3c0.3,1.8,1.2,4.2,1.6,5.2c0.4-1,1.3-3.4,1.6-5.2h1.3
			c-0.5,2.3-1.6,4.9-2.3,6.5H125.4z"/>
		<path class="st0" d="M130.8,76.1c0.5,0,0.9,0.4,0.9,0.9c0,0.5-0.4,0.9-0.9,0.9c-0.5,0-0.9-0.4-0.9-0.9
			C129.9,76.5,130.3,76.1,130.8,76.1z M130.2,78.9h1.2v6.5h-1.2V78.9z"/>
		<path class="st0" d="M138.5,79.9c0.2,0.4,0.2,0.9,0.2,1.7v3.8h-1.2V82c0-1,0-1.2-0.1-1.4c-0.1-0.4-0.5-0.7-1.1-0.7
			c-1,0-1.7,0.6-1.7,2.2v3.3h-1.2v-6.5h1.1c0.1,0.3,0.1,0.7,0.1,1c0.4-0.7,1-1.2,2.1-1.2C137.4,78.7,138.1,79,138.5,79.9z"/>
		<path class="st0" d="M144.7,85.3c-0.5,0.2-0.9,0.3-1.5,0.3c-1.8,0-2.9-1.4-2.9-3.4c0-2,1.1-3.4,2.9-3.4c0.6,0,1,0,1.5,0.3v1.1
			c-0.5-0.2-0.9-0.3-1.5-0.3c-1.2,0-1.6,0.9-1.6,2.3c0,1.4,0.5,2.3,1.6,2.3c0.6,0,1-0.1,1.5-0.3V85.3z"/>
		<path class="st0" d="M146.8,76.1c0.5,0,0.9,0.4,0.9,0.9c0,0.5-0.4,0.9-0.9,0.9c-0.5,0-0.9-0.4-0.9-0.9
			C146,76.5,146.4,76.1,146.8,76.1z M146.2,78.9h1.2v6.5h-1.2V78.9z"/>
		<path class="st0" d="M151.2,82.8c-0.4,0.1-0.6,0.3-0.6,0.6c0,0.3,0.4,1,1.4,1c0.8,0,1.7-0.2,2.4-0.6v1c-0.6,0.4-1.4,0.6-2.4,0.6
			c-1.9,0-2.9-1.4-2.9-3.4c0-2,1.3-3.4,3-3.4c1.6,0,2.4,0.8,2.4,1.8c0,1.1-0.7,1.6-2,1.9L151.2,82.8z M150.3,82.2
			c0.1-0.1,0.4-0.3,0.7-0.3l1.1-0.3c0.7-0.2,1.1-0.5,1.1-1c0-0.6-0.4-0.9-1.1-0.9c-1.1,0-1.8,0.9-1.8,2.3V82.2z"/>
	</g>
	<g>
		<g>
			<path d="M11.6,70.2c-0.9-2.2-2.2-6.3-2.5-7.8c-0.3,1.4-1.6,5.6-2.5,7.8H4.7C3.4,67.5,2.2,62.9,1.2,59h2.3
				c0.6,3.1,1.4,7.1,2.2,8.8C6.4,66,7.5,62.1,8.2,59h1.9c0.7,3.1,1.8,7.1,2.5,8.8c0.7-1.8,1.6-5.7,2.2-8.8H17
				c-0.9,3.9-2.2,8.5-3.5,11.2H11.6z"/>
			<path d="M21.6,65.8c-0.7,0.2-1,0.5-1,1.1c0,0.6,0.7,1.7,2.4,1.7c1.4,0,3-0.4,4.2-1v1.8c-1.1,0.6-2.5,1-4.2,1c-3.3,0-5-2.3-5-5.8
				c0-3.5,2.2-5.8,5.2-5.8c2.8,0,4.1,1.4,4.1,3.2c0,1.9-1.2,2.8-3.5,3.3L21.6,65.8z M20.2,64.8c0.2-0.2,0.6-0.4,1.1-0.6l1.9-0.5
				c1.3-0.3,1.9-0.8,1.9-1.6c0-1-0.6-1.6-1.9-1.6c-1.9,0-3.1,1.6-3.1,4.1V64.8z"/>
			<path d="M36.6,59.5v1.8c-0.8-0.4-2.1-0.8-3.3-0.8c-1.1,0-1.8,0.5-1.8,1.3c0,0.8,0.4,1.1,1.9,1.6l1.2,0.4c1.8,0.6,2.6,1.6,2.6,3.1
				c0,2.3-1.6,3.5-4.5,3.5c-1.3,0-2.3-0.3-3.3-0.8v-1.9c0.8,0.4,2.1,0.9,3.3,0.9c1.5,0,2.3-0.5,2.3-1.5c0-0.8-0.5-1.2-1.8-1.6
				L32,65.2c-1.6-0.5-2.7-1.4-2.7-3.3c0-1.7,1.2-3.2,4-3.2C34.6,58.7,35.8,59.1,36.6,59.5z"/>
			<path d="M40.1,60.7h-1.5V59h1.5v-2.7c0.2-0.1,1-0.4,2.1-0.5V59H45v1.7h-2.8v5.7c0,1.7,0.2,2.1,1.5,2.1c0.5,0,1.3-0.2,1.6-0.3v1.9
				c-0.3,0.1-1,0.3-1.9,0.3c-2.5,0-3.3-1.4-3.3-3.9V60.7z"/>
			<path d="M56.2,70.2c-1.3-2.6-3.1-7.2-4-11.2h2.3c0.6,3.1,2,7.2,2.7,9c0.7-1.8,2.2-5.9,2.7-9h2.3c-0.9,3.9-2.8,8.5-4,11.2H56.2z"
				/>
			<path d="M63.8,54.3H66v12.3c0,1.3,0.2,1.7,1.1,1.7h0.5v1.8c-0.2,0-0.6,0.1-1,0.1c-1.8,0-2.7-1.1-2.7-3.5V54.3z"/>
			<path d="M77.7,70.2h-1.8c-0.2-0.4-0.2-0.7-0.2-1.2c-1.1,1.2-2.3,1.4-3.6,1.4c-1.8,0-3.2-1.4-3.2-3.2c0-1.5,0.8-2.8,3.4-3.5
				l1.9-0.5c1.1-0.3,1.5-0.6,1.5-1.3c0-0.7-0.6-1.3-2-1.3c-1.3,0-2.8,0.4-3.8,0.8v-1.8c1-0.5,2.5-0.8,3.8-0.8c2.6,0,4.1,1,4.1,4
				V70.2z M75.6,64.2c-0.2,0.2-0.4,0.4-0.9,0.5l-1.8,0.5C71.2,65.7,71,66.3,71,67c0,1,0.7,1.6,1.6,1.6c1.9,0,3-1,3-2.3V64.2z"/>
			<path d="M89,70.2h-1.8c-0.2-0.4-0.2-0.7-0.2-1.2c-1.1,1.2-2.3,1.4-3.6,1.4c-1.8,0-3.2-1.4-3.2-3.2c0-1.5,0.8-2.8,3.4-3.5l1.9-0.5
				c1.1-0.3,1.5-0.6,1.5-1.3c0-0.7-0.6-1.3-2-1.3c-1.3,0-2.8,0.4-3.8,0.8v-1.8c1-0.5,2.5-0.8,3.8-0.8c2.6,0,4.1,1,4.1,4V70.2z
				 M86.8,64.2c-0.2,0.2-0.4,0.4-0.9,0.5l-1.8,0.5c-1.6,0.5-1.9,1.1-1.9,1.8c0,1,0.7,1.6,1.6,1.6c1.9,0,3-1,3-2.3V64.2z"/>
			<path d="M100.7,60.7c0.3,0.7,0.4,1.6,0.4,3v6.5H99v-5.8c0-1.7-0.1-2-0.2-2.5c-0.2-0.7-0.8-1.2-1.8-1.2c-1.8,0-2.9,1.1-2.9,3.9
				v5.6h-2.1V59h1.8c0.2,0.4,0.2,1.2,0.2,1.7c0.6-1.2,1.7-2,3.6-2C98.7,58.7,100.1,59.2,100.7,60.7z"/>
			<path d="M113.1,70.2h-1.8c-0.2-0.4-0.2-0.8-0.2-1.4c-0.7,1-1.6,1.6-3,1.6c-3.2,0-4.6-2.3-4.6-5.8c0-3.5,1.5-5.8,4.6-5.8
				c1.4,0,2.5,0.9,2.9,1.7v-6.2h2.1V70.2z M108.3,60.6c-2,0-2.6,1.6-2.6,4c0,2.4,0.6,4.1,2.6,4.1c2,0,2.7-1.6,2.7-4.1
				C110.9,62.2,110.3,60.6,108.3,60.6z"/>
			<path d="M119,65.8c-0.7,0.2-1,0.5-1,1.1c0,0.6,0.7,1.7,2.4,1.7c1.4,0,3-0.4,4.2-1v1.8c-1.1,0.6-2.5,1-4.2,1c-3.3,0-5-2.3-5-5.8
				c0-3.5,2.2-5.8,5.2-5.8c2.8,0,4.1,1.4,4.1,3.2c0,1.9-1.2,2.8-3.5,3.3L119,65.8z M117.6,64.8c0.2-0.2,0.6-0.4,1.1-0.6l1.9-0.5
				c1.3-0.3,1.9-0.8,1.9-1.6c0-1-0.6-1.6-1.9-1.6c-1.9,0-3.1,1.6-3.1,4.1V64.8z"/>
			<path d="M127.2,59h1.8c0.2,0.4,0.2,0.9,0.2,1.4c0.6-1,1.8-1.7,2.9-1.7c0.3,0,0.6,0,0.8,0.1v2.1c-0.4-0.1-0.7-0.2-1.1-0.2
				c-1.9,0-2.5,1-2.5,2.8v6.6h-2.1V59z"/>
			<path d="M137.3,65.8c-0.7,0.2-1,0.5-1,1.1c0,0.6,0.7,1.7,2.4,1.7c1.4,0,3-0.4,4.2-1v1.8c-1.1,0.6-2.5,1-4.2,1c-3.3,0-5-2.3-5-5.8
				c0-3.5,2.2-5.8,5.2-5.8c2.8,0,4.1,1.4,4.1,3.2c0,1.9-1.2,2.8-3.5,3.3L137.3,65.8z M135.9,64.8c0.2-0.2,0.6-0.4,1.1-0.6l1.9-0.5
				c1.3-0.3,1.9-0.8,1.9-1.6c0-1-0.6-1.6-1.9-1.6c-1.9,0-3.1,1.6-3.1,4.1V64.8z"/>
			<path d="M154.2,60.7c0.3,0.7,0.4,1.6,0.4,3v6.5h-2.1v-5.8c0-1.7-0.1-2-0.2-2.5c-0.2-0.7-0.8-1.2-1.8-1.2c-1.8,0-2.9,1.1-2.9,3.9
				v5.6h-2.1V59h1.8c0.2,0.4,0.2,1.2,0.2,1.7c0.6-1.2,1.7-2,3.6-2C152.2,58.7,153.6,59.2,154.2,60.7z"/>
		</g>
		<path d="M51,62.6h-5.2v1.8h5.8C51.4,63.8,51.2,63.2,51,62.6z"/>
	</g>
	<path class="st0" d="M114.7,26.7c12.9,1.9,23.5-7.1,32.5-14.4c-2.2,10.2,3.4,19.3,5,29.1c0.3,2,0.1,4,0.1,6
		c-11.6-1.7-22.6-5.4-31.8-14.7C118.1,30.5,116.4,28.9,114.7,26.7L114.7,26.7z"/>
	<path class="st0" d="M147.2,12.3c13.3-9.9,31.8-14.5,48.1-8.8c-7.4,5.5-10.1,15-10.8,24.2C174,18.8,159.8,16.1,147.2,12.3
		L147.2,12.3z"/>
	<path class="st0" d="M184.5,27.7c0,0-11.8,1.2-17.3,5.7c-4.6,3.7-4.6,4.7-7.8,8.1c-1.5,1.6-2,2.5-7.1,5.9c0,0,10.1,0.6,16.4,7
		c6.3,6.4,9.4,13.2,9.4,13.2s4.6-10.4,5.5-19.8c0.8-9.4,0.9-11.3,0.9-14.7C184.4,29.7,184.5,27.7,184.5,27.7z"/>
</g>
</svg>
